<?xml version="1.0" encoding="UTF-8" standalone="no"?>
<!-- Created with Inkscape (http://www.inkscape.org/) -->

<svg
   xmlns:dc="http://purl.org/dc/elements/1.1/"
   xmlns:cc="http://creativecommons.org/ns#"
   xmlns:rdf="http://www.w3.org/1999/02/22-rdf-syntax-ns#"
   xmlns:svg="http://www.w3.org/2000/svg"
   xmlns="http://www.w3.org/2000/svg"
   xmlns:sodipodi="http://sodipodi.sourceforge.net/DTD/sodipodi-0.dtd"
   xmlns:inkscape="http://www.inkscape.org/namespaces/inkscape"
   width="630"
   height="630"
   id="svg2"
   version="1.1"
   inkscape:version="0.48.3.1 r9886"
   sodipodi:docname="comunidadgris.svg">
  <defs
     id="defs4">
    <clipPath
       clipPathUnits="userSpaceOnUse"
       id="clipPath948">
      <path
         inkscape:connector-curvature="0"
         d="m 218.719,465.616 62.047,0 0,-37.865 -62.047,0 0,37.865 z"
         id="path950" />
    </clipPath>
  </defs>
  <sodipodi:namedview
     id="base"
     pagecolor="#ffffff"
     bordercolor="#666666"
     borderopacity="1.0"
     inkscape:pageopacity="0.0"
     inkscape:pageshadow="2"
     inkscape:zoom="0.7"
     inkscape:cx="423.02069"
     inkscape:cy="310.28889"
     inkscape:document-units="px"
     inkscape:current-layer="layer1"
     showgrid="false"
     objecttolerance="10000"
     inkscape:window-width="1366"
     inkscape:window-height="686"
     inkscape:window-x="0"
     inkscape:window-y="24"
     inkscape:window-maximized="1" />
  <metadata
     id="metadata7">
    <rdf:RDF>
      <cc:Work
         rdf:about="">
        <dc:format>image/svg+xml</dc:format>
        <dc:type
           rdf:resource="http://purl.org/dc/dcmitype/StillImage" />
        <dc:title></dc:title>
      </cc:Work>
    </rdf:RDF>
  </metadata>
  <g
     inkscape:label="Capa 1"
     inkscape:groupmode="layer"
     id="layer1"
     transform="translate(0,-422.35618)">
    <rect
       style="fill:#a2b885;fill-opacity:1;stroke:none"
       id="rect3809-0"
       width="314.28571"
       height="637.14288"
       x="314.46429"
       y="422.48117" />
    <rect
       style="fill:#91a478;fill-opacity:1;stroke:none"
       id="rect3809"
       width="314.28571"
       height="637.14288"
       x="0.28571892"
       y="422.35617" />
    <g
       id="g936"
       transform="matrix(5.9857411,0,0,-5.9857411,315.69952,500.39772)"
       style="fill:#626f51;fill-opacity:1">
      <path
         d="m 0,0 c -22.025,0 -39.943,-17.921 -39.943,-39.946 0,-22.025 17.918,-39.946 39.943,-39.946 22.025,0 39.949,17.921 39.949,39.946 C 39.949,-17.921 22.025,0 0,0 m 0,-85.576 c -25.162,0 -45.628,20.468 -45.628,45.63 0,25.161 20.466,45.63 45.628,45.63 25.161,0 45.633,-20.469 45.633,-45.63 0,-25.162 -20.472,-45.63 -45.633,-45.63"
         style="fill:#626f51;fill-opacity:1;fill-rule:nonzero;stroke:none"
         id="path938"
         inkscape:connector-curvature="0" />
    </g>
    <g
       id="g940"
       transform="matrix(8.0985659,0,0,-8.0985659,355.43995,783.75763)"
       style="fill:#626f51;fill-opacity:1">
      <path
         d="m 0,0 c -0.977,0.153 -1,2.819 -1,2.819 0,0 2.871,2.818 3.497,6.609 1.683,0 2.723,4.03 1.039,5.447 C 3.607,16.367 5.7,26.59 -4.9,26.59 c -10.601,0 -8.506,-10.223 -8.435,-11.715 -1.684,-1.417 -0.644,-5.447 1.039,-5.447 0.626,-3.791 3.499,-6.609 3.499,-6.609 0,0 -0.023,-2.666 -1,-2.819 -3.149,-0.497 -14.904,-5.637 -14.904,-11.274 l 39.606,0 C 14.905,-5.637 3.149,-0.497 0.002,0 L 0,0 z"
         style="fill:#626f51;fill-opacity:1;fill-rule:nonzero;stroke:none"
         id="path942"
         inkscape:connector-curvature="0" />
    </g>
  </g>
</svg>
