<?xml version="1.0" encoding="UTF-8" standalone="no"?>
<!-- Created with Inkscape (http://www.inkscape.org/) -->

<svg
   xmlns:dc="http://purl.org/dc/elements/1.1/"
   xmlns:cc="http://creativecommons.org/ns#"
   xmlns:rdf="http://www.w3.org/1999/02/22-rdf-syntax-ns#"
   xmlns:svg="http://www.w3.org/2000/svg"
   xmlns="http://www.w3.org/2000/svg"
   xmlns:sodipodi="http://sodipodi.sourceforge.net/DTD/sodipodi-0.dtd"
   xmlns:inkscape="http://www.inkscape.org/namespaces/inkscape"
   width="630"
   height="630"
   id="svg2"
   version="1.1"
   inkscape:version="0.48.3.1 r9886"
   sodipodi:docname="comunidadgris.svg">
  <defs
     id="defs4">
    <clipPath
       clipPathUnits="userSpaceOnUse"
       id="clipPath948">
      <path
         inkscape:connector-curvature="0"
         d="m 218.719,465.616 62.047,0 0,-37.865 -62.047,0 0,37.865 z"
         id="path950" />
    </clipPath>
    <clipPath
       clipPathUnits="userSpaceOnUse"
       id="clipPath100">
      <path
         inkscape:connector-curvature="0"
         d="m 385.604,459.399 56.68,0 0,-23.271 -56.68,0 0,23.271 z"
         id="path102" />
    </clipPath>
  </defs>
  <sodipodi:namedview
     id="base"
     pagecolor="#ffffff"
     bordercolor="#666666"
     borderopacity="1.0"
     inkscape:pageopacity="0.0"
     inkscape:pageshadow="2"
     inkscape:zoom="0.7"
     inkscape:cx="57.806307"
     inkscape:cy="316.8965"
     inkscape:document-units="px"
     inkscape:current-layer="g96"
     showgrid="false"
     objecttolerance="10000"
     inkscape:window-width="1366"
     inkscape:window-height="686"
     inkscape:window-x="0"
     inkscape:window-y="24"
     inkscape:window-maximized="1" />
  <metadata
     id="metadata7">
    <rdf:RDF>
      <cc:Work
         rdf:about="">
        <dc:format>image/svg+xml</dc:format>
        <dc:type
           rdf:resource="http://purl.org/dc/dcmitype/StillImage" />
        <dc:title></dc:title>
      </cc:Work>
    </rdf:RDF>
  </metadata>
  <g
     inkscape:label="Capa 1"
     inkscape:groupmode="layer"
     id="layer1"
     transform="translate(0,-422.35618)">
    <g
       id="g3945"
       transform="matrix(1.1284058,0,0,1.1284058,-82.268297,-259.55861)">
      <g
         id="g96"
         transform="matrix(5.2493188,0,0,-5.2493188,-1821.4955,3186.8757)">
        <g
           id="g98" />
        <g
           style="opacity:0.35000604"
           id="g108"
           transform="translate(411.8678,451.3646)">
          <path
             inkscape:connector-curvature="0"
             id="path110"
             style="fill:#7b8b64;fill-opacity:1;fill-rule:nonzero;stroke:none"
             d="m 0,0 -3.624,2.295 0,2.472 c 0,0.401 -0.277,0.734 -0.64,0.806 C -4.316,5.584 -4.37,5.59 -4.425,5.59 l -0.493,0 c -0.433,0 -0.785,-0.368 -0.785,-0.821 l 0,-1.158 -6.785,4.297 -0.034,0.02 c -0.035,0.02 -0.07,0.036 -0.105,0.05 l -0.035,0.013 c -0.039,0.014 -0.077,0.023 -0.116,0.03 l -0.062,0.01 c 0,0 -0.002,0 -0.002,0 l -0.014,0.002 -10e-4,-0.002 c -0.04,0.004 -0.09,0.007 -0.157,0 l -0.06,-0.01 C -13.113,8.014 -13.152,8.005 -13.223,7.979 -13.251,7.968 -13.279,7.955 -13.312,7.937 L -25.852,0 c -0.395,-0.25 -0.528,-0.779 -0.302,-1.202 l 0.183,-0.343 c 0.225,-0.423 0.784,-0.58 1.181,-0.328 l 0.572,0.363 0,-9.51 0.032,0.023 0,-3.441 c 0,-0.441 0.328,-0.798 0.733,-0.798 l 7.672,0 0,6.61 c 0,0.519 0.421,0.94 0.94,0.94 l 3.83,0 c 0.519,0 0.94,-0.421 0.94,-0.94 l 0,-6.61 7.672,0 c 0.405,0 0.733,0.357 0.733,0.798 l 0,12.94 0.588,-0.372 c 0.133,-0.084 0.284,-0.129 0.439,-0.129 l 0,0 c 0.006,0 0.011,-0.002 0.016,-0.002 0.308,0 0.592,0.175 0.742,0.456 l 0.183,0.343 C 0.529,-0.779 0.396,-0.25 0,0" />
        </g>
        <g
           style="opacity:0.35000604000000002;fill:#7b8b64;fill-opacity:1"
           id="g112"
           transform="translate(441.8721,451.3646)">
          <path
             inkscape:connector-curvature="0"
             id="path114"
             style="fill:#7b8b64;fill-opacity:1;fill-rule:nonzero;stroke:none"
             d="m 0,0 -3.625,2.295 0,2.472 c 0,0.401 -0.276,0.734 -0.64,0.806 -0.051,0.011 -0.105,0.017 -0.16,0.017 l -0.493,0 c -0.433,0 -0.785,-0.368 -0.785,-0.821 l 0,-1.158 -6.785,4.297 -0.034,0.02 c -0.035,0.02 -0.07,0.036 -0.105,0.05 l -0.035,0.013 c -0.039,0.014 -0.077,0.023 -0.116,0.03 l -0.062,0.01 c -10e-4,0 -0.002,0 -0.002,0 l -0.014,0.002 c 0,0 -10e-4,-0.002 -10e-4,-0.002 -0.04,0.004 -0.09,0.007 -0.157,0 l -0.06,-0.01 C -13.113,8.014 -13.152,8.005 -13.223,7.979 -13.251,7.968 -13.279,7.955 -13.312,7.937 L -25.852,0 c -0.396,-0.25 -0.528,-0.779 -0.302,-1.202 l 0.183,-0.343 c 0.225,-0.423 0.784,-0.58 1.181,-0.328 l 0.572,0.363 0,-9.51 0.032,0.023 0,-3.441 c 0,-0.441 0.328,-0.798 0.733,-0.798 l 7.672,0 0,6.61 c 0,0.519 0.421,0.94 0.94,0.94 l 3.83,0 c 0.519,0 0.94,-0.421 0.94,-0.94 l 0,-6.61 7.672,0 c 0.405,0 0.733,0.357 0.733,0.798 l 0,12.94 0.588,-0.372 c 0.132,-0.084 0.284,-0.129 0.439,-0.129 l 0,0 c 0.006,0 0.011,-0.002 0.016,-0.002 0.308,0 0.592,0.175 0.742,0.456 l 0.183,0.343 C 0.529,-0.779 0.396,-0.25 0,0" />
        </g>
      </g>
      <g
         transform="matrix(5.2493188,0,0,-5.2493188,433.80088,845.13422)"
         id="g116">
        <path
           inkscape:connector-curvature="0"
           id="path118"
           style="fill:#626f51;fill-opacity:1;fill-rule:nonzero;stroke:none"
           d="m 0,0 -4.4,2.786 0,3.001 c 0,0.487 -0.336,0.892 -0.777,0.978 -0.063,0.014 -0.128,0.021 -0.195,0.021 l -0.598,0 c -0.526,0 -0.953,-0.447 -0.953,-0.997 l 0,-1.405 -8.238,5.216 -0.041,0.025 c -0.042,0.023 -0.084,0.043 -0.127,0.06 l -0.042,0.016 c -0.047,0.016 -0.094,0.028 -0.142,0.036 l -0.075,0.012 c -0.001,0 -0.002,0 -0.003,0 l -0.016,0.003 -0.001,-0.003 c -0.048,0.005 -0.11,0.008 -0.191,0 l -0.073,-0.012 c -0.047,-0.009 -0.094,-0.02 -0.18,-0.051 -0.035,-0.014 -0.069,-0.029 -0.109,-0.051 L -31.384,0 c -0.48,-0.304 -0.641,-0.945 -0.367,-1.459 l 0.222,-0.417 c 0.274,-0.513 0.953,-0.703 1.434,-0.397 l 0.695,0.439 0,-11.544 0.039,0.027 0,-4.177 c 0,-0.535 0.398,-0.968 0.889,-0.968 l 9.314,0 0,8.023 c 0,0.631 0.511,1.142 1.141,1.142 l 4.65,0 c 0.63,0 1.141,-0.511 1.141,-1.142 l 0,-8.023 9.314,0 c 0.491,0 0.889,0.433 0.889,0.968 l 0,15.71 0.714,-0.453 c 0.161,-0.102 0.345,-0.156 0.534,-0.156 l 0,0 c 0.006,0 0.013,-0.003 0.019,-0.003 0.374,0 0.719,0.213 0.901,0.554 L 0.367,-1.46 C 0.642,-0.945 0.48,-0.304 0,0" />
      </g>
    </g>
    <path
       d="m 315.15272,501.59665 c -131.0121,0 -237.594403,106.60014 -237.594403,237.61225 0,131.01211 106.582303,237.61225 237.594403,237.61225 131.01212,0 237.63008,-106.60014 237.63008,-237.61225 0,-131.01211 -106.61796,-237.61225 -237.63008,-237.61225 m 0,509.03485 c -149.67203,0 -271.410692,-121.75056 -271.410692,-271.4226 0,-149.6661 121.738662,-271.4226 271.410692,-271.4226 149.66608,0 271.44043,121.7565 271.44043,271.4226 0,149.67204 -121.77435,271.4226 -271.44043,271.4226"
       style="fill:#626f51;fill-opacity:1;fill-rule:nonzero;stroke:none"
       id="path54-5"
       inkscape:connector-curvature="0" />
  </g>
</svg>
