<?xml version="1.0" encoding="utf-8"?>
<!-- Generator: Adobe Illustrator 17.1.0, SVG Export Plug-In . SVG Version: 6.00 Build 0)  -->
<!DOCTYPE svg PUBLIC "-//W3C//DTD SVG 1.1//EN" "http://www.w3.org/Graphics/SVG/1.1/DTD/svg11.dtd">
<svg version="1.1" id="Capa_1" xmlns="http://www.w3.org/2000/svg" xmlns:xlink="http://www.w3.org/1999/xlink" x="0px" y="0px"
	 viewBox="0 0 500 500" enable-background="new 0 0 500 500" xml:space="preserve">
<g>
	<g>
		<g>
			<path fill="#3AAA35" d="M250,466.1c-119.2,0-216.1-96.9-216.1-216.1c0-119.2,96.9-216.1,216.1-216.1
				c119.2,0,216.1,96.9,216.1,216.1C466.1,369.2,369.1,466.1,250,466.1z M250,60.8C145.7,60.8,60.8,145.7,60.8,250
				S145.7,439.2,250,439.2S439.2,354.3,439.2,250S354.3,60.8,250,60.8z"/>
		</g>
	</g>
	<g>
		<g opacity="0.4">
			<path fill="#3AAA35" d="M240.2,198.5L223,187.7V176c0-1.9-1.3-3.5-3-3.8c-0.2-0.1-0.5-0.1-0.8-0.1h-2.3c-2,0-3.7,1.7-3.7,3.9v5.5
				L181,161.1l-0.2-0.1c-0.2-0.1-0.3-0.2-0.5-0.2l-0.2-0.1c-0.2-0.1-0.4-0.1-0.6-0.1l-0.3,0c0,0,0,0,0,0l-0.1,0l0,0
				c-0.2,0-0.4,0-0.7,0l-0.3,0c-0.2,0-0.4,0.1-0.7,0.2c-0.1,0.1-0.3,0.1-0.4,0.2l-59.4,37.6c-1.9,1.2-2.5,3.7-1.4,5.7l0.9,1.6
				c1.1,2,3.7,2.7,5.6,1.6l2.7-1.7v45l0.2-0.1v16.3c0,2.1,1.6,3.8,3.5,3.8h36.3v-31.3c0-2.5,2-4.5,4.5-4.5H188c2.5,0,4.5,2,4.5,4.5
				v31.3h36.3c1.9,0,3.5-1.7,3.5-3.8v-61.3l2.8,1.8c0.6,0.4,1.3,0.6,2.1,0.6h0c0,0,0,0,0.1,0c1.5,0,2.8-0.8,3.5-2.2l0.9-1.6
				C242.7,202.2,242,199.7,240.2,198.5z"/>
			<path fill="#3AAA35" d="M382.3,198.5l-17.2-10.9V176c0-1.9-1.3-3.5-3-3.8c-0.2-0.1-0.5-0.1-0.8-0.1H359c-2,0-3.7,1.7-3.7,3.9v5.5
				l-32.1-20.3L323,161c-0.2-0.1-0.3-0.2-0.5-0.2l-0.2-0.1c-0.2-0.1-0.4-0.1-0.6-0.1l-0.3,0c0,0,0,0,0,0l-0.1,0c0,0,0,0,0,0
				c-0.2,0-0.4,0-0.7,0l-0.3,0c-0.2,0-0.4,0.1-0.7,0.2c-0.1,0.1-0.3,0.1-0.4,0.2l-59.4,37.6c-1.9,1.2-2.5,3.7-1.4,5.7l0.9,1.6
				c1.1,2,3.7,2.7,5.6,1.6l2.7-1.7v45l0.2-0.1v16.3c0,2.1,1.6,3.8,3.5,3.8h36.3v-31.3c0-2.5,2-4.5,4.5-4.5h18.1c2.5,0,4.5,2,4.5,4.5
				v31.3h36.3c1.9,0,3.5-1.7,3.5-3.8v-61.3l2.8,1.8c0.6,0.4,1.3,0.6,2.1,0.6h0c0,0,0,0,0.1,0c1.5,0,2.8-0.8,3.5-2.2l0.9-1.6
				C384.8,202.2,384.1,199.7,382.3,198.5z"/>
		</g>
		<path fill="#3AAA35" d="M324.3,223.4l-20.8-13.2V196c0-2.3-1.6-4.2-3.7-4.6c-0.3-0.1-0.6-0.1-0.9-0.1H296c-2.5,0-4.5,2.1-4.5,4.7
			v6.7l-39-24.7l-0.2-0.1c-0.2-0.1-0.4-0.2-0.6-0.3l-0.2-0.1c-0.2-0.1-0.4-0.1-0.7-0.2l-0.4-0.1c0,0,0,0,0,0l-0.1,0l0,0
			c-0.2,0-0.5,0-0.9,0l-0.3,0.1c-0.2,0-0.4,0.1-0.9,0.2c-0.2,0.1-0.3,0.1-0.5,0.2l-72.1,45.6c-2.3,1.4-3,4.5-1.7,6.9l1.1,2
			c1.3,2.4,4.5,3.3,6.8,1.9l3.3-2.1v54.7l0.2-0.1v19.8c0,2.5,1.9,4.6,4.2,4.6h44.1v-38c0-3,2.4-5.4,5.4-5.4h22c3,0,5.4,2.4,5.4,5.4
			v38h44.1c2.3,0,4.2-2.1,4.2-4.6v-74.4l3.4,2.1c0.8,0.5,1.6,0.7,2.5,0.7l0,0c0,0,0.1,0,0.1,0c1.8,0,3.4-1,4.3-2.6l1.1-2
			C327.4,227.9,326.6,224.9,324.3,223.4z"/>
	</g>
</g>
</svg>
