<?xml version="1.0" encoding="utf-8"?>
<!-- Generator: Adobe Illustrator 15.1.0, SVG Export Plug-In . SVG Version: 6.00 Build 0)  -->
<!DOCTYPE svg PUBLIC "-//W3C//DTD SVG 1.1//EN" "http://www.w3.org/Graphics/SVG/1.1/DTD/svg11.dtd">
<svg version="1.1" id="Layer_1" xmlns="http://www.w3.org/2000/svg" xmlns:xlink="http://www.w3.org/1999/xlink" x="0px" y="0px"
	 width="30px" height="30px" viewBox="0 0 30 30" enable-background="new 0 0 30 30" xml:space="preserve">
<g>
	<path fill="#3EAB37" d="M30,5.271c0,0.638-0.405,1.156-0.907,1.156H0.99c-0.502,0-0.907-0.518-0.907-1.156V1.805
		c0-0.639,0.405-1.156,0.907-1.156h28.103C29.595,0.649,30,1.167,30,1.805V5.271z"/>
	<path fill="#3EAB37" d="M30,16.734c0,0.638-0.405,1.156-0.907,1.156H0.99c-0.502,0-0.907-0.518-0.907-1.156v-3.467
		c0-0.638,0.405-1.156,0.907-1.156h28.103c0.502,0,0.907,0.518,0.907,1.156V16.734z"/>
	<path fill="#3EAB37" d="M30,28.196c0,0.638-0.405,1.156-0.907,1.156H0.99c-0.502,0-0.907-0.518-0.907-1.156v-3.467
		c0-0.638,0.405-1.156,0.907-1.156h28.103c0.502,0,0.907,0.518,0.907,1.156V28.196z"/>
</g>
</svg>
