<?xml version="1.0" encoding="utf-8"?>
<!-- Generator: Adobe Illustrator 17.1.0, SVG Export Plug-In . SVG Version: 6.00 Build 0)  -->
<!DOCTYPE svg PUBLIC "-//W3C//DTD SVG 1.1//EN" "http://www.w3.org/Graphics/SVG/1.1/DTD/svg11.dtd">
<svg version="1.1" id="Layer_1" xmlns="http://www.w3.org/2000/svg" xmlns:xlink="http://www.w3.org/1999/xlink" x="0px" y="0px"
	 viewBox="0 0 192.3 56.5" enable-background="new 0 0 192.3 56.5" xml:space="preserve">
<g>
	<g>
		<polyline fill="#95C11F" points="15.4,23.7 42.1,8.2 15.4,8 15.4,23.7 15.4,8 		"/>
		<polygon fill="#95C11F" points="29.1,17.1 55.8,32.5 42.7,9.2 29.1,17.1 42.7,9.2 		"/>
		<polyline fill="#95C11F" points="26.8,47.4 0.1,32 13.2,55.3 26.8,47.4 13.2,55.3 		"/>
		<polygon fill="#95C11F" points="14.3,8 0.7,0.4 0.6,31 0.6,31 0.6,31 14.3,38.9 		"/>
		<polygon fill="#95C11F" points="41.6,56.5 55.3,33.5 41.7,25.6 		"/>
		<polyline fill="#95C11F" points="40.5,40.8 13.8,56.2 40.5,56.5 40.5,40.8 40.5,56.5 		"/>
	</g>
	<g>
		<path fill="#7C7C7C" d="M95,26.8c-2.1-1.9-4.5-3-7.3-3.3c-2.3-0.2-4.6,0.2-6.7,1.2c-2,0.9-3.6,2.3-4.8,4V15.7H74v33.2h2.3v-5.6
			c1.1,1.7,2.5,3.2,4.3,4.4l0.2,0.1c1.9,1,3.9,1.6,5.9,1.6c0.4,0,0.8,0,1.2-0.1c1.8-0.2,3.5-0.7,5.1-1.7c1.6-0.9,2.9-2.2,3.9-3.6
			c1-1.5,1.7-3.1,2-4.9c0.4-1.8,0.3-3.6,0-5.3C98.4,31,97,28.7,95,26.8z M96.8,38.7c-0.3,1.5-0.9,2.9-1.7,4.1
			c-0.8,1.2-1.9,2.2-3.2,2.9s-2.7,1.2-4.1,1.4c-2.1,0.2-4.1-0.2-5.9-1.3c-1.7-1.2-3.1-2.7-4.1-4.5c-1-1.8-1.5-3.7-1.5-5.5
			c0-1.9,0.6-3.7,1.6-5.3c1-1.6,2.4-2.8,4.2-3.7c1.4-0.7,2.9-1,4.4-1c0.4,0,0.7,0,1,0.1c2.3,0.2,4.3,1.1,6,2.7
			c1.7,1.5,2.8,3.5,3.3,5.7C97.1,35.7,97.1,37.2,96.8,38.7z"/>
		<path fill="#7C7C7C" d="M126.2,31.5c-1-2.3-2.6-4.3-4.7-5.8c-2.2-1.5-4.6-2.2-7.2-2.2c-2.3,0-4.5,0.6-6.4,1.7s-3.6,2.7-4.7,4.7
			c-1.1,2-1.7,4.1-1.7,6.5c0,1,0.1,2,0.4,3c0,0.1,0,0.1,0,0.2c0.7,2.8,2.2,5.1,4.5,7c2.3,1.8,5,2.7,7.9,2.7c2.2,0,4.3-0.5,6.3-1.6
			c1.9-1.1,3.5-2.5,4.6-4.4l0.2-0.3l-1.3-2.3l-0.6,1c-0.9,1.6-2.2,2.9-3.8,3.9c-1.6,1-3.4,1.4-5.4,1.4c-2.4,0-4.6-0.7-6.5-2.2
			c-1.9-1.5-3.1-3.4-3.8-5.6l0-0.2c-0.2-0.8-0.3-1.7-0.3-2.6c0,0,0,0,0,0h22.1c0.5,0,0.8-0.1,1-0.2c0.4-0.3,0.4-0.9,0.3-1.1
			C126.9,33.8,126.6,32.6,126.2,31.5z M124.6,34.1h-20.7c0.5-2.2,1.6-4.1,3.4-5.7c2-1.7,4.3-2.6,6.9-2.6c2.1,0,4.1,0.6,5.8,1.7
			c1.7,1.1,3,2.7,3.9,4.5C124.2,32.7,124.4,33.4,124.6,34.1z"/>
		<path fill="#7C7C7C" d="M154.6,31.5c-1-2.3-2.6-4.3-4.7-5.8c-2.2-1.5-4.6-2.2-7.2-2.2c-2.3,0-4.5,0.6-6.4,1.7s-3.6,2.7-4.7,4.7
			c-1.1,2-1.7,4.1-1.7,6.5c0,1,0.1,2,0.4,3c0,0.1,0,0.1,0,0.2c0.7,2.8,2.2,5.1,4.5,7c2.3,1.8,5,2.7,7.9,2.7c2.2,0,4.3-0.5,6.3-1.6
			c1.9-1.1,3.5-2.5,4.6-4.4l0.2-0.3l-1.3-2.3l-0.6,1c-0.9,1.6-2.2,2.9-3.8,3.9c-1.6,1-3.4,1.4-5.4,1.4c-2.4,0-4.6-0.7-6.5-2.2
			c-1.9-1.5-3.1-3.4-3.8-5.6l0-0.2c-0.2-0.8-0.3-1.7-0.3-2.6c0,0,0,0,0,0h22.1c0.5,0,0.8-0.1,1-0.2c0.4-0.3,0.4-0.9,0.3-1.1
			C155.3,33.8,155,32.6,154.6,31.5z M153,34.1h-20.7c0.5-2.2,1.6-4.1,3.4-5.7c2-1.7,4.3-2.6,6.9-2.6c2.1,0,4.1,0.6,5.8,1.7
			c1.7,1.1,3,2.7,3.9,4.5C152.6,32.7,152.8,33.4,153,34.1z"/>
		<polygon fill="#7C7C7C" points="164.5,43.3 155.8,24.2 153.4,24.2 164.5,49 176.2,24.6 173.7,24.6 		"/>
		<path fill="#7C7C7C" d="M178.6,15.7c-0.6,0-1.2,0.2-1.6,0.7c-0.4,0.4-0.7,1-0.7,1.6s0.2,1.2,0.7,1.6c0.4,0.4,1,0.7,1.6,0.7
			c0.6,0,1.2-0.2,1.6-0.7c0.4-0.4,0.7-1,0.7-1.6s-0.2-1.2-0.7-1.6S179.2,15.7,178.6,15.7z"/>
		<rect x="177.5" y="24.1" fill="#7C7C7C" width="2.3" height="24.8"/>
		<path fill="#7C7C7C" d="M191.7,23.7c-0.3-0.1-0.5-0.1-0.8-0.1h-0.1c-1.7,0-3.2,0.5-4.5,1.5c-0.3,0.2-0.6,0.4-0.8,0.7v-1.7h-2.3
			v24.7h2.3l0-17.9c0-0.2,0-0.5,0.1-0.7c0.3-1.4,0.9-2.5,2.1-3.3c1.1-0.8,2.4-1.2,3.8-1L192,26l0.3-2.2L191.7,23.7z"/>
	</g>
</g>
</svg>
