<?xml version="1.0" encoding="utf-8"?>
<!-- Generator: Adobe Illustrator 17.1.0, SVG Export Plug-In . SVG Version: 6.00 Build 0)  -->
<!DOCTYPE svg PUBLIC "-//W3C//DTD SVG 1.1//EN" "http://www.w3.org/Graphics/SVG/1.1/DTD/svg11.dtd">
<svg version="1.1" id="Layer_1" xmlns="http://www.w3.org/2000/svg" xmlns:xlink="http://www.w3.org/1999/xlink" x="0px" y="0px"
	 viewBox="0 0 438.6 334" enable-background="new 0 0 438.6 334" xml:space="preserve">
<g>
	<g>
		<polyline fill="#FFFFFF" points="172.7,86.4 271.9,29.1 172.7,28.1 172.7,86.4 172.7,28.1 		"/>
		<polygon fill="#FFFFFF" points="223.5,61.9 322.6,119.1 274,32.7 223.5,61.9 274,32.7 		"/>
		<polyline fill="#FFFFFF" points="215.1,174.3 116,117 164.7,203.4 215.1,174.3 164.7,203.4 		"/>
		<polygon fill="#FFFFFF" points="168.6,28.1 118.1,0 118.1,113.4 118.1,113.4 118.1,113.4 168.8,142.7 		"/>
		<polygon fill="#FFFFFF" points="270,208.1 320.5,122.7 270.1,93.6 		"/>
		<polyline fill="#FFFFFF" points="265.9,149.8 166.7,207 265.9,208.1 265.9,149.8 265.9,208.1 		"/>
	</g>
	<g>
		<path fill="#FFFFFF" d="M77.8,250.6c-7.6-7-16.7-11.1-26.9-12.1c-8.5-0.9-17,0.6-24.7,4.3c-7.2,3.4-13.2,8.5-17.8,15v-48.5H0
			v122.9h8.4v-20.7c4.1,6.4,9.4,11.9,16,16.3l0.7,0.4c6.9,3.9,14.3,5.9,22,5.9c1.5,0,3-0.1,4.5-0.2c6.6-0.6,12.9-2.7,18.8-6.2
			c5.8-3.5,10.7-8,14.6-13.5c3.7-5.4,6.2-11.6,7.5-18.2c1.3-6.7,1.3-13.3-0.1-19.7C90.3,266.1,85.3,257.5,77.8,250.6z M84.4,294.3
			c-1.1,5.5-3.2,10.6-6.2,15c-3.1,4.4-7.1,8.1-11.9,10.9c-4.8,2.9-10,4.6-15.3,5.1c-7.8,0.8-15.2-0.8-21.8-4.6
			c-6.4-4.3-11.5-9.9-15.2-16.7c-3.7-6.7-5.5-13.6-5.5-20.5c0.1-7.1,2.2-13.7,6-19.6c3.8-5.9,9-10.5,15.4-13.6
			c5.1-2.5,10.6-3.8,16.3-3.8c1.3,0,2.6,0.1,3.9,0.2c8.4,0.9,15.8,4.2,22.1,9.9c6.3,5.7,10.4,12.9,12.2,21.1
			C85.4,283.3,85.4,288.8,84.4,294.3z"/>
		<path fill="#FFFFFF" d="M193.3,267.8c-3.6-8.7-9.5-15.9-17.4-21.4c-8-5.5-17-8.2-26.8-8.2c-8.5,0-16.6,2.1-23.9,6.4
			c-7.3,4.2-13.2,10.1-17.4,17.4c-4.2,7.3-6.4,15.4-6.4,23.9c0,3.8,0.4,7.6,1.3,11.1c0,0.2,0.1,0.5,0.2,0.7
			c2.6,10.4,8.3,19,16.8,25.8c8.6,6.7,18.4,10.2,29.4,10.2c8.3,0,16.1-2,23.2-6c7.1-3.9,12.8-9.4,17.1-16.2l0.8-1.3l-4.9-8.4
			l-2.1,3.7c-3.4,5.9-8.1,10.8-14.2,14.3c-6,3.6-12.7,5.4-19.9,5.4c-9,0-17.1-2.8-24.1-8.2c-7-5.4-11.7-12.5-13.9-20.8l-0.1-0.7
			c-0.8-3.2-1.2-6.4-1.2-9.6c0,0,0-0.1,0-0.1h81.8c1.9,0,3-0.2,3.7-0.7c1.7-1.2,1.3-3.4,1.2-4C196.2,276.4,195.1,272,193.3,267.8z
			 M187.5,277.3h-76.7c1.8-8.3,6-15.3,12.6-21.1c7.3-6.4,15.9-9.6,25.7-9.6c7.9,0,15.1,2.1,21.5,6.4c6.4,4.2,11.2,9.9,14.3,16.8
			C186,272.1,186.9,274.7,187.5,277.3z"/>
		<path fill="#FFFFFF" d="M298.6,267.8c-3.6-8.7-9.5-15.9-17.4-21.4c-8-5.5-17-8.2-26.8-8.2c-8.5,0-16.6,2.1-23.9,6.4
			c-7.3,4.2-13.2,10.1-17.4,17.4c-4.2,7.3-6.4,15.4-6.4,23.9c0,3.8,0.4,7.6,1.3,11.1c0,0.2,0.1,0.5,0.2,0.7
			c2.6,10.4,8.3,19,16.8,25.8c8.6,6.7,18.4,10.2,29.4,10.2c8.3,0,16.1-2,23.2-6c7.1-3.9,12.8-9.4,17.1-16.2l0.8-1.3l-4.9-8.4
			l-2.1,3.7c-3.4,5.9-8.1,10.8-14.2,14.3c-6,3.6-12.7,5.4-19.9,5.4c-9,0-17.1-2.8-24.1-8.2c-7-5.4-11.7-12.5-13.9-20.8l-0.1-0.7
			c-0.8-3.2-1.2-6.4-1.2-9.6c0,0,0-0.1,0-0.1H297c1.9,0,3-0.2,3.7-0.7c1.7-1.2,1.3-3.4,1.2-4C301.5,276.4,300.4,272,298.6,267.8z
			 M292.8,277.3h-76.7c1.8-8.3,6-15.3,12.6-21.1c7.3-6.4,15.9-9.6,25.7-9.6c7.9,0,15.1,2.1,21.5,6.4c6.4,4.2,11.2,9.9,14.3,16.8
			C291.3,272.1,292.2,274.7,292.8,277.3z"/>
		<polygon fill="#FFFFFF" points="335.5,311.6 303.2,240.9 294.1,240.9 335.3,332.8 378.7,242.3 369.5,242.3 		"/>
		<path fill="#FFFFFF" d="M387.7,209.4c-2.3,0-4.3,0.8-6,2.5c-1.6,1.6-2.5,3.7-2.5,6s0.8,4.3,2.5,6c1.6,1.6,3.7,2.5,6,2.5
			c2.3,0,4.3-0.8,6-2.5c1.6-1.6,2.5-3.7,2.5-6c0-2.3-0.8-4.3-2.5-6C392,210.2,390,209.4,387.7,209.4z"/>
		<rect x="383.5" y="240.3" fill="#FFFFFF" width="8.4" height="91.9"/>
		<path fill="#FFFFFF" d="M436.4,238.9c-0.9-0.2-1.9-0.3-2.9-0.3h-0.5c-6.2,0-11.9,1.9-16.8,5.5c-1.1,0.8-2.1,1.6-3.1,2.6v-6.2h-8.4
			v91.6h8.4l0-66.3c0.1-0.8,0.2-1.7,0.3-2.6c1-5.2,3.5-9.2,7.7-12.3c4.2-3.1,8.9-4.3,14-3.8l2.4,0.3l1.1-8L436.4,238.9z"/>
	</g>
</g>
</svg>
